PathFileType	4	(X/Y/Z)	walk-thru1-1-TP.trc
DataRate	CameraRate	NumFrames	NumMarkers	Units	OrigDataRate	OrigDataStartFrame	OrigNumFrames
120.00	120.00	       4	60	mm	120.00	163	       432
Frame#	Time	Top.Head			Front.Head			Rear.Head			Jaw			C7			R.Clavicle			L.Clavicle			R.Shoulder			L.Shoulder			R.Scapula			L.Scapula			R.Scap.Inf			R.Biceps.Lateral			R.Elbow			R.Elbow.Medial			R.Forearm			R.Ulna			R.Radius			R.Wrist			R.Thumb.M1			R.Thumb.M2			R.Thumb.M3			R.Finger3.M1			R.Finger3.M2			R.Finger3.M3			L.Biceps.Lateral			L.Elbow			L.Elbow.Medial			L.Forearm			L.Ulna			L.Radius			L.Wrist			L.Thumb.M1			L.Thumb.M2			L.Thumb.M3			L.Finger3.M1			L.Finger3.M2			L.Finger3.M3			V.Sacral			R.ASIS			L.ASIS			R.Thigh			R.Thigh.Front			R.Knee			R.Knee.Medial			R.Shank			R.Ankle			R.Ankle.Medial			R.Heel			R.Toe			R.MedFoot			L.Thigh			L.Knee			L.Knee.Medial			L.Shank			L.Ankle			L.Ankle.Medial			L.Heel			L.Toe			L.MedFoot			V_mid_ASIS			V_R_Knee_JC			V_L_Knee_JC			V_R_Elbow_JC			V_L_Elbow_JC			V_R_Ankle_JC			V_L_Ankle_JC			V_R_Wrist_JC			V_L_Wrist_JC			V_R_ScaTrpz_1stMC_JC			V_R_1stMC_1stPP_JC			V_R_1stPP_1stDP_JC			V_R_LunCap_3rdMC_JC			V_R_3rdMC_3rdPP_JC			V_R_3rdPP_3rdMP_JC			V_R_3rdMP_3rdDP_JC			V_L_ScaTrpz_1stMC_JC			V_L_1stMC_1stPP_JC			V_L_1stPP_1stDP_JC			V_L_LunCap_3rdMC_JC			V_L_3rdMC_3rdPP_JC			V_L_3rdPP_3rdMP_JC			V_L_3rdMP_3rdPP_JC			V_ROOT_JC			V_R_Hip_JC			V_L_Hip_JC			V_R_GlenHum_JC			V_L_GlenHum_JC			V_ForeHead_Ctr			V_Vertex			V_Sagit_Lambdoid_Suture			V_R_FrontoTemp			V_L_FrontoTemporal			V_R_ParietalOccip			V_L_ParietalOcciptal			V_R_Temporal			V_L_Temporal			V_mid_FrontRearHead			V_mid_RLGlenHumCtrs			V_C7_vert			V_C1_vert			V_Mid_Hip			
		X1	Y1	Z1	X2	Y2	Z2	X3	Y3	Z3	X4	Y4	Z4	X5	Y5	Z5	X6	Y6	Z6	X7	Y7	Z7	X8	Y8	Z8	X9	Y9	Z9	X10	Y10	Z10	X11	Y11	Z11	X12	Y12	Z12	X13	Y13	Z13	X14	Y14	Z14	X15	Y15	Z15	X16	Y16	Z16	X17	Y17	Z17	X18	Y18	Z18	X19	Y19	Z19	X20	Y20	Z20	X21	Y21	Z21	X22	Y22	Z22	X23	Y23	Z23	X24	Y24	Z24	X25	Y25	Z25	X26	Y26	Z26	X27	Y27	Z27	X28	Y28	Z28	X29	Y29	Z29	X30	Y30	Z30	X31	Y31	Z31	X32	Y32	Z32	X33	Y33	Z33	X34	Y34	Z34	X35	Y35	Z35	X36	Y36	Z36	X37	Y37	Z37	X38	Y38	Z38	X39	Y39	Z39	X40	Y40	Z40	X41	Y41	Z41	X42	Y42	Z42	X43	Y43	Z43	X44	Y44	Z44	X45	Y45	Z45	X46	Y46	Z46	X47	Y47	Z47	X48	Y48	Z48	X49	Y49	Z49	X50	Y50	Z50	X51	Y51	Z51	X52	Y52	Z52	X53	Y53	Z53	X54	Y54	Z54	X55	Y55	Z55	X56	Y56	Z56	X57	Y57	Z57	X58	Y58	Z58	X59	Y59	Z59	X60	Y60	Z60	

163	1.350	399.14252	70.09403	1805.34595	297.58466	55.06618	1694.11914	523.87860	68.12411	1704.61658	338.77057	54.47416	1529.36938	536.27521	62.40567	1569.68396	431.24081	175.17017	1473.75159	433.82672	-53.41844	1479.57385	469.90515	263.65820	1467.22473	510.06085	-144.41373	1493.29407	581.49414	153.68541	1483.82593	589.54004	-11.40671	1490.47998	628.16815	164.15474	1396.26367	501.07361	326.53613	1288.17175	518.52155	352.47845	1133.83191	537.98004	263.99033	1109.58252	414.29523	298.47574	1035.55322	423.78705	343.90515	932.38422	360.85623	278.70233	914.88562	351.74301	319.87421	869.53259	344.40161	273.31705	885.03632	303.20911	237.76331	851.18103	261.86893	230.47377	832.85944	296.58612	317.65045	808.86188	273.80524	279.27960	760.22888	278.26828	234.03242	731.32458	548.96588	-205.40744	1345.39563	578.84076	-249.55771	1172.73450	612.37354	-177.91801	1154.88574	512.68134	-241.38480	1066.36121	571.51447	-256.00177	978.68225	495.36630	-220.17448	924.62903	513.41064	-251.74435	866.53473	486.26749	-210.97310	860.82208	481.64261	-175.52498	812.36816	476.59052	-179.25122	752.45972	499.73361	-266.64639	792.12329	505.15277	-244.86642	736.30353	522.48071	-219.80777	692.20941	626.11481	47.24354	1092.63147	534.29156	235.99150	1035.12488	520.68561	-143.46643	1036.53052	498.94711	180.58742	630.47778	436.27960	87.04849	551.97369	491.43845	146.10614	497.20319	501.57278	32.33514	503.96021	505.85684	97.52495	316.11148	636.23669	128.88402	75.22535	604.36163	30.30815	95.19286	697.00269	69.39132	53.99131	455.72821	87.34592	47.25780	527.64667	47.38238	70.08434	378.22598	-135.08353	676.05475	321.78134	-115.45776	536.56885	320.64719	2.63805	531.74237	330.36990	-72.01479	336.86594	442.55276	-108.81607	102.48608	412.43140	-12.90325	136.38919	499.85562	-51.05819	92.86432	278.50998	-45.73997	66.05688	328.88065	-22.40087	89.72980																																																																																																																															
164	1.358	393.24756	69.00191	1804.58582	291.23550	55.09935	1693.51392	518.19946	66.58451	1704.64954	333.47519	53.50031	1528.82312	529.98407	60.47626	1569.09021	424.99554	172.85141	1472.60901	428.03162	-53.03518	1479.31580	462.89786	263.12790	1467.43774	504.29816	-144.47200	1492.42444	575.68524	153.91580	1483.23059	583.66101	-11.96911	1490.08252	622.92554	164.19659	1395.54993	495.92233	325.67972	1288.00293	511.66962	350.86472	1133.23169	531.28601	264.22742	1109.66748	407.55972	298.32733	1035.21741	417.00592	343.20932	932.46759	353.99960	277.30405	914.74847	344.54886	319.19745	869.62360	336.16855	272.27972	885.01593	297.21793	236.90219	850.95862	254.15547	229.82628	834.08575	289.88553	317.14807	808.81201	266.23047	277.63892	759.60760	271.20111	234.68689	731.00018	543.50317	-205.35751	1344.94861	573.74060	-250.56856	1172.72754	607.49884	-179.49286	1155.08875	507.48038	-240.82310	1065.49268	565.83197	-256.66626	978.64954	489.53076	-222.08969	924.08777	506.98877	-252.40739	866.68597	479.91980	-210.87683	859.64966	474.89502	-176.22090	812.81287	469.40741	-180.40295	751.81689	494.30103	-267.56445	791.26569	499.99783	-245.76790	735.18011	517.87292	-220.73491	691.83319	620.13135	47.33937	1092.42773	529.04309	235.19217	1034.81299	515.65125	-143.84465	1036.18469	495.92014	181.23010	630.52649	432.79340	85.76364	551.22626	489.10941	146.18329	496.61420	499.40372	33.03805	502.85193	505.19537	97.09966	315.41678	636.19550	128.95667	75.67441	604.25208	30.34319	95.22821	696.63849	69.15823	54.49626	456.35779	86.93888	47.35903	526.59363	48.17857	68.35992	371.50128	-135.94698	675.76477	315.13925	-114.51717	536.32306	314.93481	2.67491	532.01843	318.05103	-72.05838	336.77066	424.81564	-108.57384	99.30135	395.48749	-13.75509	133.72548	481.74661	-48.91896	88.48885	259.52771	-45.10065	67.53576	310.25357	-21.92640	89.30473																																																																																																																															
165	1.367	386.33386	67.54200	1803.73462	285.21689	54.29388	1692.23279	512.17792	65.54717	1704.32190	327.77304	53.89156	1528.11926	524.05310	60.35228	1567.36169	419.04568	172.82384	1472.65149	422.67709	-53.34338	1479.22119	457.52246	262.22156	1466.79980	497.92661	-144.82323	1492.01917	569.81500	153.55722	1483.20435	578.26630	-13.05865	1489.88989	617.09619	162.68326	1394.93420	489.36221	325.84113	1287.66956	506.16324	351.97696	1133.24072	526.39459	263.55115	1108.86658	400.69803	297.64230	1035.56445	409.83578	341.63821	932.55627	347.34238	277.19772	914.51587	338.15503	317.90396	869.12347	330.66873	270.57480	884.84528	289.32672	238.32951	850.79651	248.16623	230.27373	834.16986	282.57953	316.07910	808.49225	259.82568	277.15744	759.80811	265.35809	235.29356	730.98218	537.14795	-206.43629	1345.52905	567.55396	-250.05640	1171.49731	602.38660	-178.12842	1155.26074	500.91833	-241.29961	1065.01978	559.95795	-256.54099	977.62561	484.58069	-220.90649	923.82269	501.33914	-251.83571	865.89893	475.18500	-210.62523	859.50299	470.68808	-175.67908	811.49414	464.85263	-180.64813	750.75574	488.28519	-268.79712	790.45544	494.09943	-245.42570	734.45673	511.21194	-221.32196	691.46112	614.40381	46.98739	1091.68079	522.35364	234.57455	1033.71545	509.54840	-143.13696	1035.57837	492.37244	180.72731	629.90228	430.93347	86.73742	548.92401	486.86603	146.25584	495.56201	497.77264	32.59539	502.35709	504.03418	97.36636	315.41864	635.88464	128.94511	75.83377	603.98596	30.18993	95.41843	696.47577	69.75341	54.71422	455.83829	87.43157	47.03857	527.35791	47.76560	70.32388	366.14590	-136.21773	675.28412	309.01950	-114.46315	536.37415	308.85107	2.02111	531.22626	307.00876	-71.68698	336.51285	407.41721	-107.38917	96.57122	377.47998	-12.45664	131.54594	463.19019	-47.76922	83.67745	241.41408	-44.96757	68.49868	292.39639	-21.78671	89.97585																																																																																																																															
166	1.375	380.05774	65.36647	1802.77039	280.16693	53.62009	1691.69849	506.22943	65.16731	1703.94653	321.75278	53.66244	1527.89587	517.41620	61.38006	1567.50195	413.01920	172.28802	1472.46680	416.86731	-55.03559	1477.93860	451.28668	261.42471	1466.41504	492.31277	-145.99231	1490.68042	564.33575	151.93748	1482.64368	572.06726	-13.68734	1488.45972	611.01819	162.76265	1394.97717	483.42899	325.22144	1287.61731	500.47693	349.83035	1132.43872	519.33203	262.55890	1108.31799	395.36118	296.59052	1034.68799	403.82498	341.45914	932.18109	341.29077	277.82056	914.23724	331.93985	318.16470	869.24591	323.37802	272.27670	885.12909	283.06616	237.31050	851.08643	241.92953	229.97577	834.31268	276.50439	316.21176	808.66656	253.09126	277.04407	760.12769	259.28110	234.34644	730.57025	530.74103	-206.49467	1344.25122	562.14795	-251.12830	1170.94739	596.26276	-179.21254	1153.95532	495.17218	-241.39400	1064.83740	553.80780	-257.76196	977.17664	479.13251	-221.33063	923.04584	495.37817	-252.24519	865.00378	469.47693	-210.36525	858.34680	464.60483	-174.71146	810.14880	458.59177	-180.52736	749.92401	483.64264	-268.33823	789.48865	488.26370	-245.45003	733.21460	504.58792	-221.17580	690.61517	608.49951	46.49437	1091.82471	516.93317	234.11380	1032.56787	503.67746	-143.55115	1035.28455	489.12448	180.09599	629.38940	428.26144	86.54684	548.60706	483.96771	145.55312	495.00848	495.39621	33.63856	502.40546	502.14044	97.15248	314.59488	635.88464	128.94511	75.83377	604.00745	30.00971	95.24581	696.41632	69.70600	54.93250	455.58728	87.44279	46.98633	527.64417	46.77638	69.56901	360.50317	-136.42989	674.35187	303.44583	-114.27503	535.88342	301.69952	2.59996	531.55243	296.65402	-71.64166	336.62650	389.58154	-106.23448	93.70944	361.20029	-11.11218	130.61464	445.61713	-46.96890	80.51286	222.33603	-45.40818	70.04438	274.40894	-21.21184	90.10546																																																																																																																															
